<svg width="36" height="47" viewBox="0 0 36 47" fill="none" xmlns="http://www.w3.org/2000/svg">
<path fill-rule="evenodd" clip-rule="evenodd" d="M17.907 2.395C5.40034 2.39536 -1.63863 13.7813 2.27616 24.8969C4.34769 30.7786 7.0737 35.8693 9.94608 39.4575C12.8877 43.132 15.7044 44.8947 17.907 44.895C20.0915 44.895 22.7733 43.1563 25.659 39.4702C28.476 35.8717 31.2119 30.7631 33.5594 24.8423C37.8564 14.0038 30.7193 2.75256 18.493 2.40379L17.907 2.395ZM24.0662 10.5874C22.0503 9.45943 19.7702 8.89505 17.2264 8.895C14.8984 8.895 12.7976 9.30263 10.9256 10.1186C9.07771 10.9346 7.54209 12.1111 6.31815 13.6469L10.8182 17.7514C12.4981 15.7834 14.514 14.7993 16.866 14.7993C18.354 14.7993 19.6264 15.1948 20.6824 15.9868C21.7383 16.7788 22.4697 17.8712 22.8777 19.2632H13.8416V24.519H22.95C22.542 25.983 21.7976 27.1351 20.7176 27.9751C19.6616 28.7909 18.3779 29.1987 16.866 29.1987C14.514 29.1987 12.4981 28.2146 10.8182 26.2466L6.31815 30.3511C7.54209 31.8869 9.07771 33.0634 10.9256 33.8794C12.7976 34.6954 14.8984 35.103 17.2264 35.103C19.7702 35.103 22.0503 34.5507 24.0662 33.4468C26.0821 32.3188 27.6541 30.759 28.782 28.7671C29.934 26.7751 30.5096 24.5185 30.5096 21.9985C30.5095 19.4787 29.9339 17.2228 28.782 15.2309C27.6541 13.2391 26.082 11.6914 24.0662 10.5874Z" fill="#FF5333"/>
<path fill-rule="evenodd" clip-rule="evenodd" d="M18.5428 0.903786C31.7961 1.28536 39.1858 15.6988 34.5027 27.5112C29.7942 38.9488 23.5743 46.395 17.907 46.395L17.6326 46.3882C12.0243 46.1215 5.38435 38.7643 1.19629 27.5112C-3.02989 15.5114 4.27059 0.89536 17.907 0.894997L18.5428 0.903786ZM2.27616 24.8969C-1.63863 13.7813 5.40034 2.39536 17.907 2.395L18.493 2.40379C30.7193 2.75256 37.8564 14.0038 33.5594 24.8423C31.2119 30.7631 28.476 35.8717 25.659 39.4702C22.7733 43.1563 20.0915 44.895 17.907 44.895C15.7044 44.8947 12.8877 43.132 9.94608 39.4575C7.0737 35.8693 4.34769 30.7786 2.27616 24.8969Z" fill="#FF5333"/>
</svg>
