<svg width="187" height="48" viewBox="0 0 187 48" fill="none" xmlns="http://www.w3.org/2000/svg">
<path d="M58.5123 16.237V35.605H53.1483V33.337C52.4283 34.177 51.5403 34.813 50.4843 35.245C49.4523 35.677 48.3483 35.893 47.1723 35.893C44.6283 35.893 42.6003 35.161 41.0883 33.697C39.6003 32.233 38.8563 30.061 38.8563 27.181V16.237H44.4723V26.353C44.4723 29.473 45.7803 31.033 48.3963 31.033C49.7643 31.033 50.8563 30.601 51.6723 29.737C52.4883 28.849 52.8963 27.541 52.8963 25.813V16.237H58.5123ZM48.5403 14.149C44.3163 14.149 42.1923 12.289 42.1683 8.569H45.8403C45.8643 9.409 46.0923 10.069 46.5243 10.549C46.9803 11.005 47.6403 11.233 48.5043 11.233C49.3683 11.233 50.0283 11.005 50.4843 10.549C50.9643 10.069 51.2043 9.409 51.2043 8.569H54.9483C54.9243 12.289 52.7883 14.149 48.5403 14.149ZM90.613 25.849C90.613 28.849 89.605 31.225 87.589 32.977C85.597 34.705 82.741 35.701 79.021 35.965V42.589H73.873V35.965C70.153 35.701 67.285 34.717 65.269 33.013C63.277 31.285 62.281 28.897 62.281 25.849C62.281 22.849 63.265 20.521 65.233 18.865C67.225 17.209 70.105 16.249 73.873 15.985V8.893H79.021V15.985C82.741 16.249 85.597 17.221 87.589 18.901C89.605 20.581 90.613 22.897 90.613 25.849ZM67.717 25.849C67.717 27.577 68.209 28.909 69.193 29.845C70.177 30.781 71.737 31.369 73.873 31.609V20.341C71.737 20.557 70.177 21.121 69.193 22.033C68.209 22.921 67.717 24.193 67.717 25.849ZM79.021 31.609C81.157 31.369 82.717 30.781 83.701 29.845C84.709 28.909 85.213 27.577 85.213 25.849C85.213 24.193 84.709 22.921 83.701 22.033C82.717 21.121 81.157 20.557 79.021 20.341V31.609ZM103.488 35.893C101.448 35.893 99.6118 35.473 97.9798 34.633C96.3718 33.769 95.1118 32.581 94.1998 31.069C93.2878 29.557 92.8318 27.841 92.8318 25.921C92.8318 24.001 93.2878 22.285 94.1998 20.773C95.1118 19.261 96.3718 18.085 97.9798 17.245C99.6118 16.381 101.448 15.949 103.488 15.949C105.528 15.949 107.352 16.381 108.96 17.245C110.568 18.085 111.828 19.261 112.74 20.773C113.652 22.285 114.108 24.001 114.108 25.921C114.108 27.841 113.652 29.557 112.74 31.069C111.828 32.581 110.568 33.769 108.96 34.633C107.352 35.473 105.528 35.893 103.488 35.893ZM103.488 31.285C104.928 31.285 106.104 30.805 107.016 29.845C107.952 28.861 108.42 27.553 108.42 25.921C108.42 24.289 107.952 22.993 107.016 22.033C106.104 21.049 104.928 20.557 103.488 20.557C102.048 20.557 100.86 21.049 99.9238 22.033C98.9878 22.993 98.5198 24.289 98.5198 25.921C98.5198 27.553 98.9878 28.861 99.9238 29.845C100.86 30.805 102.048 31.285 103.488 31.285ZM127.907 15.949C129.971 15.949 131.771 16.357 133.307 17.173C134.843 17.989 136.031 19.153 136.871 20.665C137.711 22.177 138.131 23.941 138.131 25.957C138.131 27.925 137.735 29.665 136.943 31.177C136.151 32.665 135.035 33.829 133.595 34.669C132.155 35.485 130.499 35.893 128.627 35.893C126.155 35.893 124.223 35.113 122.831 33.553V42.589H117.215V25.993C117.215 24.001 117.659 22.249 118.547 20.737C119.435 19.225 120.683 18.049 122.291 17.209C123.899 16.369 125.771 15.949 127.907 15.949ZM127.655 31.285C129.119 31.285 130.307 30.793 131.219 29.809C132.131 28.825 132.587 27.541 132.587 25.957C132.587 24.349 132.131 23.053 131.219 22.069C130.307 21.061 129.119 20.557 127.655 20.557C126.191 20.557 125.003 21.049 124.091 22.033C123.203 23.017 122.759 24.313 122.759 25.921C122.759 27.529 123.203 28.825 124.091 29.809C124.979 30.793 126.167 31.285 127.655 31.285ZM161.204 16.237V35.605H155.84V33.337C155.12 34.177 154.232 34.813 153.176 35.245C152.144 35.677 151.04 35.893 149.864 35.893C147.32 35.893 145.292 35.161 143.78 33.697C142.292 32.233 141.548 30.061 141.548 27.181V16.237H147.164V26.353C147.164 29.473 148.472 31.033 151.088 31.033C152.456 31.033 153.548 30.601 154.364 29.737C155.18 28.849 155.588 27.541 155.588 25.813V16.237H161.204ZM183.764 16.237V35.605H178.76V30.061H174.62L170.948 35.605H164.972L169.4 29.269C168.056 28.741 167.024 27.985 166.304 27.001C165.608 25.993 165.26 24.781 165.26 23.365C165.26 21.085 166.076 19.333 167.708 18.109C169.364 16.861 171.632 16.237 174.512 16.237H183.764ZM174.62 20.809C173.42 20.809 172.508 21.025 171.884 21.457C171.284 21.889 170.984 22.585 170.984 23.545C170.984 24.505 171.272 25.213 171.848 25.669C172.448 26.101 173.348 26.317 174.548 26.317H178.76V20.809H174.62Z" fill="#393939"/>
<path fill-rule="evenodd" clip-rule="evenodd" d="M17.907 3.395C5.40034 3.39536 -1.63863 14.7813 2.27616 25.897C4.34769 31.7787 7.0737 36.8693 9.94608 40.4575C12.8877 44.132 15.7044 45.8947 17.907 45.895C20.0915 45.895 22.7733 44.1563 25.659 40.4702C28.476 36.8717 31.2119 31.7631 33.5594 25.8423C37.8564 15.0038 30.7193 3.75257 18.493 3.40379L17.907 3.395ZM24.0662 11.5874C22.0503 10.4594 19.7702 9.89505 17.2264 9.895C14.8984 9.895 12.7976 10.3026 10.9256 11.1186C9.07771 11.9346 7.54209 13.1111 6.31815 14.647L10.8182 18.7514C12.4981 16.7834 14.514 15.7993 16.866 15.7993C18.354 15.7993 19.6264 16.1948 20.6824 16.9868C21.7383 17.7788 22.4697 18.8712 22.8777 20.2632H13.8416V25.519H22.95C22.542 26.983 21.7976 28.1351 20.7176 28.9751C19.6616 29.7909 18.3779 30.1987 16.866 30.1987C14.514 30.1987 12.4981 29.2146 10.8182 27.2466L6.31815 31.3511C7.54209 32.8869 9.07771 34.0634 10.9256 34.8794C12.7976 35.6954 14.8984 36.103 17.2264 36.103C19.7702 36.103 22.0503 35.5507 24.0662 34.4468C26.0821 33.3188 27.6541 31.759 28.782 29.7671C29.934 27.7751 30.5096 25.5185 30.5096 22.9985C30.5095 20.4787 29.9339 18.2228 28.782 16.2309C27.6541 14.2391 26.082 12.6914 24.0662 11.5874Z" fill="#FF5333"/>
<path fill-rule="evenodd" clip-rule="evenodd" d="M18.5428 1.90379C31.7961 2.28536 39.1858 16.6988 34.5027 28.5112C29.7942 39.9488 23.5743 47.395 17.907 47.395L17.6326 47.3882C12.0243 47.1215 5.38435 39.7643 1.19629 28.5112C-3.02989 16.5114 4.27059 1.89536 17.907 1.895L18.5428 1.90379ZM2.27616 25.897C-1.63863 14.7813 5.40034 3.39536 17.907 3.395L18.493 3.40379C30.7193 3.75257 37.8564 15.0038 33.5594 25.8423C31.2119 31.7631 28.476 36.8717 25.659 40.4702C22.7733 44.1563 20.0915 45.895 17.907 45.895C15.7044 45.8947 12.8877 44.132 9.94608 40.4575C7.0737 36.8693 4.34769 31.7787 2.27616 25.897Z" fill="#FF5333"/>
</svg>
